# xmcd
#
# Track frame offsets:
#	150
#	23768
#	42505
#	61648
#	82936
#	98383
#	115032
#	131095
#	148407
#	166239
#	180596
#	200123
#	216742
#	231113
#	248137
#	265988
#	281874
#	298429
#	314739
#	332290
#
# Disc length: 4638 seconds
#
# Revision: 0
# Processed by: cddbd v1.5.2PL0 Copyright (c) Steve Scherf et al.
# Submitted via: EasyCDDAExtractor 16.0.9.1
#
DISCID=35121c14
DTITLE=Nu Urban Traxx Volume 211 US
DYEAR=2015
DGENRE=blues
TTITLE0=Kanye West ft. Theophilus London, Allan Kingdom and Paul McCartney\n /
TTITLE0=All Day\n
TTITLE1=Snoop Dogg ft. Charlie Wilson\n - Peaches'n'Cream\n
TTITLE2=Wale ft. Usher\n - The Matrimony\n
TTITLE3=Migos\n - One Time\n
TTITLE4=Anthony Lewis ft.T.I.\n - It's Not My Fault\n
TTITLE5=Tinashe ft. Iggy Azalea\n - All Hands On Deck\n [Remix\n]
TTITLE6=Kid Ink, Tyga, Wale, YG, Rich Homie Quan\n - Ride Out\n
TTITLE7=Wiz Khalifa ft. Charlie Puth\n - See You Again\n
TTITLE8=Future\n - Commas\n
TTITLE9=Natalie La Rose ft. Jeremih\n - Somebody\n
TTITLE10=T.I. ft. Chris Brown\n - Private Show\n
TTITLE11=Nicki Minaj ft. Drake and Lil Wayne\n - Truffle Butter\n
TTITLE12=Tink\n - Ratchet Commandments\n
TTITLE13=Jidenna ft. Roman GianArthur\n - Classic Man\n
TTITLE14=Jamie Foxx ft. Chris Brown\n - You Changed Me\n
TTITLE15=Kevin Gates ft. August Alsina\n - I Don't Get Tired\n
TTITLE16=Chedda Da Connect\n - Flicka Da Wrist\n
TTITLE17=Snoh Aalegra\n - Emotional\n
TTITLE18=Rich Gang ft. Young Thug and Rich Homie Quan\n - Tell Em\n
TTITLE19=Kid Ink ft. Dej Loaf\n - Be Real\n
EXTD=
EXTT0=
EXTT1=
EXTT2=
EXTT3=
EXTT4=
EXTT5=
EXTT6=
EXTT7=
EXTT8=
EXTT9=
EXTT10=
EXTT11=
EXTT12=
EXTT13=
EXTT14=
EXTT15=
EXTT16=
EXTT17=
EXTT18=
EXTT19=
PLAYORDER=
